<svg width="28" height="28" viewBox="0 0 28 28" fill="none" xmlns="http://www.w3.org/2000/svg">
<path d="M19.4262 7.69811C19.4262 4.91436 17.1695 2.65764 14.3858 2.65764C13.0453 2.652 11.7577 3.18054 10.8078 4.12642C9.85795 5.0723 9.32398 6.3576 9.32398 7.69811M19.266 25.0833H9.52688C5.94946 25.0833 3.20499 23.7912 3.98455 18.5906L4.89225 11.5425C5.3728 8.94754 7.02803 7.9544 8.48035 7.9544H20.3553C21.8289 7.9544 23.3881 9.02229 23.9434 11.5425L24.8511 18.5906C25.5131 23.2038 22.8434 25.0833 19.266 25.0833Z" stroke="#444444" stroke-width="1.5" stroke-linecap="round" stroke-linejoin="round"/>
<path d="M17.8453 12.9523H17.7928" stroke="#444444" stroke-width="1.5" stroke-linecap="round" stroke-linejoin="round"/>
<path d="M11.0437 12.9523H10.99" stroke="#444444" stroke-width="1.5" stroke-linecap="round" stroke-linejoin="round"/>
</svg>
