<svg width="28" height="28" viewBox="0 0 28 28" fill="none" xmlns="http://www.w3.org/2000/svg">
<path d="M3.5 23.1875L17.5 23.1875C17.8481 23.1875 18.1819 23.3258 18.4281 23.5719C18.6742 23.8181 18.8125 24.1519 18.8125 24.5C18.8125 24.8481 18.6742 25.1819 18.4281 25.4281C18.1819 25.6742 17.8481 25.8125 17.5 25.8125L3.5 25.8125C3.1519 25.8125 2.81806 25.6742 2.57192 25.4281C2.32578 25.1819 2.1875 24.8481 2.1875 24.5C2.1875 24.1519 2.32578 23.8181 2.57192 23.5719C2.81806 23.3258 3.1519 23.1875 3.5 23.1875ZM3.5 12.6875L24.5 12.6875C24.8481 12.6875 25.1819 12.8258 25.4281 13.0719C25.6742 13.3181 25.8125 13.6519 25.8125 14C25.8125 14.3481 25.6742 14.6819 25.4281 14.9281C25.1819 15.1742 24.8481 15.3125 24.5 15.3125L3.5 15.3125C3.1519 15.3125 2.81806 15.1742 2.57192 14.9281C2.32578 14.6819 2.1875 14.3481 2.1875 14C2.1875 13.6519 2.32578 13.3181 2.57192 13.0719C2.81806 12.8258 3.1519 12.6875 3.5 12.6875ZM3.5 2.1875L17.5 2.1875C17.8481 2.1875 18.1819 2.32578 18.4281 2.57192C18.6742 2.81806 18.8125 3.1519 18.8125 3.5C18.8125 3.8481 18.6742 4.18194 18.4281 4.42808C18.1819 4.67422 17.8481 4.8125 17.5 4.8125L3.5 4.8125C3.1519 4.8125 2.81806 4.67422 2.57192 4.42808C2.32578 4.18194 2.1875 3.8481 2.1875 3.5C2.1875 3.1519 2.32578 2.81806 2.57192 2.57192C2.81806 2.32578 3.1519 2.1875 3.5 2.1875Z" fill="#444444"/>
</svg>
