<svg width="17" height="17" viewBox="0 0 17 17" fill="none" xmlns="http://www.w3.org/2000/svg">
<path fill-rule="evenodd" clip-rule="evenodd" d="M8.25002 1.20731C7.37731 1.20731 6.63303 1.71038 6.35727 2.41457C6.23415 2.72891 5.85199 2.89366 5.50367 2.78256C5.15535 2.67145 4.97279 2.32657 5.0959 2.01225C5.55472 0.840765 6.79268 0 8.25002 0C9.70728 0 10.9453 0.840765 11.4041 2.01225C11.5272 2.32657 11.3446 2.67145 10.9963 2.78256C10.648 2.89366 10.2659 2.72891 10.1427 2.41457C9.86693 1.71038 9.12274 1.20731 8.25002 1.20731Z" fill="#C1A297"/>
<path fill-rule="evenodd" clip-rule="evenodd" d="M0 3.82314C0 3.48975 0.299487 3.21948 0.668917 3.21948H15.8311C16.2005 3.21948 16.5 3.48975 16.5 3.82314C16.5 4.15653 16.2005 4.4268 15.8311 4.4268H0.668917C0.299487 4.4268 0 4.15653 0 3.82314ZM2.11095 5.23303C2.47956 5.21086 2.7983 5.46254 2.82287 5.7952L3.23309 11.3482C3.31323 12.433 3.37034 13.1878 3.49571 13.7557C3.61732 14.3066 3.78708 14.5982 4.03093 14.8041C4.27479 15.01 4.60849 15.1435 5.22568 15.2163C5.86196 15.2914 6.70037 15.2926 7.90513 15.2926H8.59492C9.79968 15.2926 10.6381 15.2914 11.2743 15.2163C11.8915 15.1435 12.2253 15.01 12.4691 14.8041C12.7129 14.5982 12.8827 14.3066 13.0043 13.7557C13.1297 13.1878 13.1868 12.433 13.2669 11.3482L13.6772 5.7952C13.7017 5.46254 14.0205 5.21086 14.3891 5.23303C14.7577 5.25521 15.0366 5.54285 15.0121 5.87551L14.5987 11.4708C14.5224 12.5032 14.4609 13.3372 14.3164 13.9916C14.1662 14.672 13.9108 15.2403 13.3831 15.6858C12.8555 16.1312 12.2101 16.3234 11.4479 16.4134C10.7147 16.5 9.78853 16.4999 8.64192 16.4999H7.85813C6.71152 16.4999 5.78533 16.5 5.05216 16.4134C4.28991 16.3234 3.64458 16.1312 3.11695 15.6858C2.58931 15.2403 2.33385 14.672 2.18366 13.9916C2.0392 13.3372 1.9776 12.5032 1.90135 11.4708L1.48801 5.87551C1.46343 5.54285 1.74233 5.25521 2.11095 5.23303Z" fill="#C1A297"/>
</svg>
